<?xml version="1.0" encoding="utf-8"?>
<!-- Generator: Adobe Illustrator 17.0.0, SVG Export Plug-In . SVG Version: 6.00 Build 0)  -->
<!DOCTYPE svg PUBLIC "-//W3C//DTD SVG 1.1//EN" "http://www.w3.org/Graphics/SVG/1.1/DTD/svg11.dtd">
<svg version="1.1" id="Layer_1" xmlns="http://www.w3.org/2000/svg" xmlns:xlink="http://www.w3.org/1999/xlink" x="0px" y="0px"
	 width="200" height="auto" viewBox="32.577 258.863 891.531 394.424"
	 enable-background="new 32.577 258.863 891.531 394.424" xml:space="preserve">
<g>
	<g>
		<path fill="#4ECFFB" d="M343.197,447.874c-27.504-47.402-29.591-94.826,1.764-141.144c29.568-43.679,84.509-59.344,132.752-39.162
			c48.23,20.177,79.159,76.099,70.112,126.816c-1.463,8.202-3.044,16.384-4.567,24.579c-11.846,17.308-19.406,37.535-36.838,51.013
			C453.138,511.17,396.414,503.637,343.197,447.874z M499.462,321.566c-1.201-16.477-9.261-28.641-26.464-29.222
			c-18.59-0.628-28.727,11.291-28.821,29.568c-0.09,17.512,11.216,28.217,27.469,28.219
			C487.919,350.134,498.217,339.313,499.462,321.566z"/>
		<path fill="#089EAE" d="M646.951,450.062c106.237-37.145,192.323,7.66,277.157,67.107c-12.907,7.939-22.238-0.682-32.041-1.815
			c-11.009-1.273-21.848-3.942-32.814-5.672c-72.486-11.437-139.678,6.522-203.373,39.16c-47.813,24.5-97.339,34.176-150.378,26.347
			c5.542-7.53,15.855-0.885,23.662-8.717c-18.937,0.049-36.056-17.586-52.994,1.642c-5.676-1.793-11.353-3.586-17.028-5.381
			c0.406-2.769,0.812-5.537,1.218-8.305c-4.954-12.863-17.005-14.057-27.982-17.017c0,0,0.119,0.081,0.118,0.081
			c-5.746-7.204-13.428-10.547-22.433-11.252l0.074,0.053c-3.472-7.783-9.519-13.037-16.785-17.093
			c0.182-2.728,0.363-5.456,0.545-8.184c76.639,17.262,127.608-7.644,154.7-75.594c2.201-3.355,6.815-14.52,6.696-0.527
			c-0.29,34.092-19.111,60.152-43.297,83.059c14.834,13.806,25.338,0.857,36.833-4.464c22.716,2.488,39.901-9.382,56.834-21.903
			l-0.106,0.068c4.658-0.095,8.837-1.143,11.279-5.657l-0.105,0.071c4.661-0.095,8.827-1.176,11.28-5.666c0,0-0.11,0.08-0.109,0.079
			c8.905-0.923,16.752-3.954,22.459-11.256l-0.107,0.085c4.16-0.389,8.32-0.778,12.48-1.167c0.001-1.089,0.002-2.178,0.003-3.267
			c-4.121-0.374-8.242-0.748-12.362-1.122C649.296,452.463,648.155,451.232,646.951,450.062z"/>
		<path fill="#089EAE" d="M166.968,490.039c-40.145-24.315-83.673-37.171-134.391-36.574
			c87.666-45.572,196.754-26.951,273.256,44.657c55.053,51.532,115.561,93.075,190.81,109.242
			c28.776,6.182,57.909,8.78,87.403,10.896c-74.623,31.109-150.043,50.775-229.769,18.404c0.016-1.417,0.029-2.835,0.039-4.252
			c4.16-0.404,8.321-0.809,16.042-1.559c-16.245-9.782-28.837-17.96-43.943-20.971c-2.529-4.44-6.706-5.433-11.36-5.424l0.117,0.088
			c-3.069-7.584-8.651-11.401-16.875-11.258l0.105,0.081c-0.117-7.365-3.986-10.991-11.222-11.261l0.049,0.055
			c-4.956-8.938-10.946-16.499-22.384-16.801l0.018,0.026c-1.867-1.867-3.735-3.735-5.602-5.602l0.014,0.014
			c-1.867-1.867-3.733-3.733-5.6-5.6l0.013,0.012c-1.866-1.866-3.733-3.732-5.599-5.599l0.012,0.012
			c-1.866-1.866-3.733-3.732-5.599-5.598l0.012,0.012c-1.866-1.866-3.733-3.732-5.599-5.599l0.013,0.012
			c-1.867-1.866-3.733-3.733-5.6-5.599c0,0,0.013,0.013,0.014,0.013c-1.867-1.867-3.735-3.734-5.602-5.601l0.029-0.001
			c-7.347-25.885-31.539-34.366-50.828-46.875C162.838,471.54,170.956,487.188,166.968,490.039z M383.616,635.918
			c0.214-2.363-0.84-2.876-3.012-1.328c-0.199,0.142,0.351,1.335,0.553,2.041C381.977,636.393,382.796,636.155,383.616,635.918z"/>
		<path fill="none" d="M393.897,501.021c-22.675-11.195-42.504-25.811-56.67-47.222
			C339.217,451.824,417.846,506.414,393.897,501.021z"/>
		<path fill="#13A5B6" d="M337.226,453.799c14.166,21.411,33.996,36.027,56.67,47.222c-0.182,2.723-0.364,5.451-0.545,8.183
			c-6.999,8.616,5.545,10.72,5.65,16.966c-1.311,1.242-2.419,2.645-3.322,4.208c-24.316-16.422-46.964-34.496-60.043-61.796
			C333.215,463.532,326.312,457.585,337.226,453.799z"/>
		<path fill="#1BA9B8" d="M287.322,598.314c-28.77-20.849-55.972-43.378-77.32-72.176c5.255,0.043,10.51,0.084,15.765,0.126
			l-0.029,0.001c1.867,1.867,3.735,3.734,5.602,5.601l-0.013-0.013c1.867,1.866,3.733,3.733,5.6,5.599l-0.013-0.012
			c1.866,1.866,3.733,3.732,5.599,5.599l-0.012-0.012c1.866,1.866,3.733,3.732,5.599,5.598l-0.012-0.012
			c1.866,1.866,3.733,3.732,5.599,5.599l-0.013-0.012c1.867,1.867,3.733,3.733,5.6,5.6l-0.014-0.014
			c1.867,1.867,3.735,3.735,5.602,5.602l-0.018-0.026c4.83,9.106,10.921,16.533,22.384,16.801c0,0-0.049-0.055-0.049-0.054
			c0.037,3.647,0.073,7.294,0.11,10.941C287.303,594.803,287.314,596.558,287.322,598.314z"/>
		<path fill="#06B8D3" d="M225.767,526.263c-5.255-0.042-10.51-0.083-15.765-0.126c-10.079-11.104-18.077-24.737-34.38-28.278
			c-0.814-4.618-0.944-9.962-8.209-7.717c0,0-0.444-0.117-0.444-0.11c3.988-2.844-4.13-18.492,7.97-10.644
			C194.228,491.897,218.42,500.378,225.767,526.263z"/>
		<path fill="#13A5B6" d="M476.17,568.114c16.939-19.228,34.057-1.592,52.994-1.642c-7.808,7.831-18.12,1.186-23.662,8.717
			C495.725,572.831,485.948,570.472,476.17,568.114z"/>
		<path fill="#14A3B3" d="M585.444,478.227c14.783-10.328,30.834-17.993,48.182-22.935c0.097,1.32,0.141,2.643,0.135,3.967
			c-1.954,3.741-3.908,7.481-5.862,11.222c0,0,0.11-0.08,0.109-0.079c-4.652,0.114-8.951,0.929-11.279,5.666
			c0,0,0.105-0.071,0.105-0.07c-4.667,0.077-8.948,0.923-11.278,5.657l0.106-0.068C598.922,480.466,592.183,479.347,585.444,478.227
			z"/>
		<path fill="#06B3CC" d="M585.444,478.227c6.739,1.12,13.478,2.239,20.218,3.359c-16.933,12.521-34.117,24.391-56.833,21.903
			c4.458-3.59,8.916-7.179,13.373-10.767c5.146-1.276,14.237,2.978,12.047-8.589c0,0,2.017-0.375,2.026-0.348
			c5.784,2.825,10.456,3.743,9.236-5.385L585.444,478.227z"/>
		<path fill="#06B1C9" d="M326.416,609.879c15.104,3.014,27.697,11.192,43.941,20.974c-7.721,0.751-11.882,1.155-16.044,1.56
			c-3.606-4.939-7.796-5.887-12.716-1.865c0,0-0.355-1.479-0.34-1.5c-0.307-4.958-3.258-6.564-7.783-6.174l-0.152,2.085
			c0,0-2.067,0.314-2.059,0.292c-1.695-3.281-3.398-6.54-5.1-9.799C326.232,613.592,326.316,611.735,326.416,609.879z"/>
		<path fill="#10A2B2" d="M287.322,598.314c-0.008-1.755-0.019-3.51-0.034-5.262c3.704,0.108,7.409,0.212,11.114,0.316
			c0,0-0.105-0.081-0.105-0.08c3.13,7.494,8.801,11.176,16.875,11.258l-0.117-0.088c1.919,3.69,3.839,7.379,5.758,11.068
			c-1.022,1.09-1.958,2.249-2.809,3.477C307.776,612.106,297.549,605.21,287.322,598.314z"/>
		<path fill="#13A5B6" d="M446.836,558.534c-11.437-5.376-24.616-7.813-32.425-19.249c6.054-0.601,12.07-1.197,18.085-1.793
			l-0.119-0.081c2.33,8.911,12.57,9.796,16.91,16.667C448.171,555.399,447.354,556.884,446.836,558.534z"/>
		<path fill="#13A5B6" d="M413.821,539.191c-7.895,0.856-12.495-5.059-18.141-8.819c0.903-1.557,2.01-2.959,3.32-4.2
			c3.712,0.042,7.424,0.082,11.137,0.122l-0.074-0.053C411.316,530.558,412.568,534.874,413.821,539.191z"/>
		<path fill="#06B5D0" d="M413.821,539.191c-1.252-4.316-2.505-8.633-3.757-12.95c9.005,0.705,16.686,4.048,22.433,11.252
			c-6.015,0.596-12.031,1.192-18.085,1.793C414.373,539.29,413.821,539.191,413.821,539.191z"/>
		<path fill="#089EAE" d="M633.76,459.259c0.007-1.324-0.038-2.646-0.135-3.967c4.445-1.742,8.889-3.484,13.329-5.228
			c1.2,1.168,2.341,2.399,3.415,3.688c0.012,1.853-0.028,3.706-0.12,5.557l0.107-0.085
			C644.824,459.237,639.292,459.248,633.76,459.259z"/>
		<path fill="#14A3B3" d="M574.248,484.133c2.19,11.567-6.901,7.313-12.047,8.589C563.621,486.216,569.747,486.314,574.248,484.133z
			"/>
		<path fill="#10A2B2" d="M341.598,630.547c4.92-4.021,9.11-3.073,12.716,1.865c-0.009,1.417-0.022,2.834-0.038,4.252
			C350.05,634.625,345.824,632.586,341.598,630.547z"/>
		<path fill="#089EAE" d="M167.413,490.142c7.265-2.245,7.395,3.099,8.209,7.717C170.499,497.828,168.46,494.513,167.413,490.142z"
			/>
		<path fill="#13A5B6" d="M460.36,554.428c-0.406,2.768-0.812,5.536-1.218,8.305c-4.103-1.406-8.205-2.813-12.307-4.21
			c0.518-1.64,1.336-3.125,2.452-4.443C452.977,554.198,456.668,554.313,460.36,554.428z"/>
		<path fill="#14A3B3" d="M585.509,478.401c1.22,9.127-3.452,8.21-9.236,5.385C579.346,481.972,582.428,480.186,585.509,478.401z"/>
		<path fill="#10A2B2" d="M326.163,615.45c1.703,3.259,3.405,6.518,5.1,9.799c-4.423-2.072-8.839-4.167-13.257-6.254
			c0.848-1.221,1.784-2.38,2.805-3.467C322.594,615.523,324.379,615.496,326.163,615.45z"/>
		<path fill="#10A2B2" d="M333.475,622.872c4.525-0.389,7.476,1.216,7.783,6.174C336.865,629.245,334.014,627.508,333.475,622.872z"
			/>
		<path fill="#F6FCFE" d="M499.462,321.566c-1.244,17.747-11.542,28.568-27.816,28.566c-16.253-0.002-27.558-10.707-27.469-28.219
			c0.094-18.277,10.23-30.196,28.821-29.568C490.2,292.925,498.26,305.089,499.462,321.566z"/>
		<path fill="#06B5D0" d="M460.36,554.428c-3.691-0.115-7.383-0.23-11.073-0.347c-4.339-6.873-14.578-7.758-16.909-16.669
			C443.354,540.371,455.405,541.565,460.36,554.428z"/>
		<path fill="#06B5D0" d="M410.137,526.294c-3.713-0.04-7.426-0.08-11.137-0.122c-0.104-6.248-12.647-8.351-5.648-16.967
			C400.618,513.257,406.665,518.511,410.137,526.294z"/>
		<path fill="#06B3CC" d="M633.76,459.259c5.532-0.011,11.064-0.022,16.597-0.034c-5.707,7.301-13.553,10.333-22.458,11.255
			C629.852,466.74,631.806,462.999,633.76,459.259z"/>
		<path fill="#06B3CC" d="M650.251,459.31c0.092-1.852,0.131-3.704,0.12-5.557c4.122,0.375,8.243,0.749,12.363,1.122
			c-0.001,1.089-0.002,2.178-0.003,3.267C658.571,458.532,654.411,458.921,650.251,459.31z"/>
		<path fill="#06B3CC" d="M605.556,481.654c2.33-4.734,6.611-5.58,11.278-5.657C614.393,480.511,610.214,481.56,605.556,481.654z"/>
		<path fill="#06B3CC" d="M616.729,476.068c2.328-4.737,6.627-5.552,11.279-5.666C625.556,474.892,621.39,475.973,616.729,476.068z"
			/>
		<path fill="#06B8D3" d="M287.228,582.162c-11.463-0.268-17.554-7.695-22.384-16.801
			C276.282,565.663,282.272,573.224,287.228,582.162z"/>
		<path fill="#06B8D3" d="M298.401,593.368c-3.705-0.104-7.41-0.208-11.114-0.316c-0.035-3.65-0.072-7.297-0.108-10.945
			C294.415,582.377,298.285,586.003,298.401,593.368z"/>
		<path fill="#06B8D3" d="M315.171,604.545c-8.074-0.082-13.745-3.764-16.875-11.258
			C306.52,593.144,312.102,596.961,315.171,604.545z"/>
		<path fill="#06B8D3" d="M326.163,615.45c-1.784,0.046-3.569,0.073-5.352,0.078c-1.918-3.691-3.837-7.381-5.756-11.07
			c4.654-0.009,8.83,0.983,11.36,5.424C326.316,611.735,326.232,613.592,326.163,615.45z"/>
		<path fill="#06B1C9" d="M383.616,635.918c-0.819,0.238-1.639,0.475-2.458,0.713c-0.202-0.705-0.753-1.899-0.553-2.041
			C382.776,633.042,383.83,633.554,383.616,635.918z"/>
		<path fill="#06B8D3" d="M236.927,537.451c-1.867-1.866-3.733-3.733-5.6-5.599C233.194,533.718,235.06,535.585,236.927,537.451z"/>
		<path fill="#06B8D3" d="M242.513,543.037c-1.866-1.866-3.733-3.732-5.599-5.599C238.781,539.305,240.647,541.171,242.513,543.037z
			"/>
		<path fill="#06B8D3" d="M231.341,531.865c-1.867-1.867-3.735-3.734-5.602-5.601C227.606,528.131,229.473,529.998,231.341,531.865z
			"/>
		<path fill="#06B8D3" d="M248.1,548.624c-1.866-1.866-3.732-3.732-5.599-5.598C244.367,544.892,246.234,546.758,248.1,548.624z"/>
		<path fill="#06B8D3" d="M253.687,554.211c-1.866-1.866-3.733-3.732-5.599-5.599C249.954,550.478,251.82,552.345,253.687,554.211z"
			/>
		<path fill="#06B8D3" d="M259.274,559.798c-1.867-1.867-3.733-3.733-5.6-5.6C255.541,556.065,257.407,557.932,259.274,559.798z"/>
		<path fill="#06B8D3" d="M264.862,565.387c-1.867-1.867-3.735-3.735-5.602-5.602C261.127,561.652,262.994,563.52,264.862,565.387z"
			/>
	</g>
</g>
</svg>
