<?xml version="1.0" encoding="utf-8"?>
<!-- Generator: Adobe Illustrator 17.0.0, SVG Export Plug-In . SVG Version: 6.00 Build 0)  -->
<!DOCTYPE svg PUBLIC "-//W3C//DTD SVG 1.1//EN" "http://www.w3.org/Graphics/SVG/1.1/DTD/svg11.dtd">
<svg version="1.1" id="Layer_1" xmlns="http://www.w3.org/2000/svg" xmlns:xlink="http://www.w3.org/1999/xlink" x="0px" y="0px"
	 width="599.925px" height="199.975px" viewBox="0 0 599.925 199.975" enable-background="new 0 0 599.925 199.975"
	 xml:space="preserve">
<g>
	<g>
		<path fill="#FDFEFE" d="M301.455,1c98.821,0,197.642,0.022,296.463-0.095c3.408-0.004,4.111,0.648,4.104,4.087
			c-0.133,64.325-0.132,128.65-0.002,192.975c0.007,3.409-0.651,4.104-4.088,4.102c-197.642-0.107-395.284-0.107-592.926-0.002
			c-3.408,0.002-4.111-0.647-4.104-4.086C1.035,133.657,1.034,69.332,0.904,5.007c-0.007-3.409,0.65-4.107,4.088-4.103
			C103.813,1.023,202.634,1,301.455,1z M451.661,92.857c0.361-0.013,0.722-0.027,1.082-0.04
			c4.127,10.485,8.233,20.978,12.404,31.445c0.693,1.74,0.92,3.76,3.798,3.832c3.105,0.077,3.386-2.021,4.152-3.975
			c2.668-6.811,5.311-13.631,8.022-20.425c1.308-3.277,2.745-6.502,4.302-10.171c1.547,2.164,1.032,3.854,1.045,5.428
			c0.062,7.328,0.027,14.656,0.027,21.984c0,7.134,0.006,6.941,7.139,7.142c3.433,0.097,4.544-0.763,4.479-4.361
			c-0.228-12.654-0.089-25.314-0.088-37.972c0-10.776-0.007-10.541-10.89-10.884c-4.088-0.129-5.786,1.256-7.103,4.945
			c-3.204,8.977-6.88,17.786-10.933,28.108c-3.294-8.351-6.025-15.231-8.724-22.123c-4.362-11.139-4.352-11.028-16.415-10.887
			c-3.069,0.036-3.955,0.87-3.924,3.95c0.152,14.988,0.302,29.984-0.06,44.965c-0.123,5.113,2.811,4.207,5.678,4.158
			c2.905-0.049,6.336,1.275,6.123-4.22C451.378,113.47,451.661,103.158,451.661,92.857z M363.508,105.935
			c-2.249-0.137-2.643-1.402-3.286-2.263c-5.578-7.469-11.486-14.732-16.507-22.562c-3.354-5.23-7.402-6.846-13.227-6.232
			c-2.512,0.265-3.44,0.8-3.422,3.446c0.106,15.492,0.087,30.986,0.015,46.479c-0.011,2.293,0.598,3.433,3.075,3.215
			c1.653-0.145,3.348-0.182,4.991,0.008c2.992,0.347,3.619-1.06,3.576-3.757c-0.134-8.494-0.083-16.992-0.009-25.487
			c0.01-1.163-0.718-2.645,1.032-3.666c6.838,9.237,13.937,18.251,20.337,27.737c2.815,4.172,5.892,5.42,10.652,5.292
			c3.621-0.098,4.345-1.192,4.305-4.565c-0.18-14.824-0.318-29.658,0.054-44.476c0.129-5.145-2.848-4.106-5.658-4.107
			c-2.954-0.001-6.326-1.211-6.047,4.267C363.836,88.054,363.508,96.883,363.508,105.935z M221.164,101.9c0-6.327,0-12.655,0-18.982
			c0-8.244,0.001-8.093-8.084-8.019c-2.737,0.025-3.334,0.913-3.241,3.41c0.172,4.656-0.08,9.328,0.1,13.983
			c0.101,2.616-0.356,3.882-3.426,3.76c-6.151-0.243-12.326-0.245-18.477,0.001c-3.053,0.122-3.539-1.085-3.434-3.734
			c0.192-4.821-0.031-9.657,0.093-14.483c0.055-2.133-0.6-3.076-2.814-2.878c-1.487,0.133-3.023,0.21-4.488-0.012
			c-3.606-0.548-4.375,0.978-4.326,4.4c0.199,13.984,0.083,27.972,0.083,41.959c0,6.726,0,6.726,6.91,6.686
			c0.333-0.002,0.673-0.044,0.998,0.007c2.796,0.439,3.788-0.637,3.662-3.536c-0.224-5.152,0.071-10.326-0.119-15.48
			c-0.092-2.481,0.745-3.095,3.109-3.039c6.324,0.151,12.658,0.192,18.979-0.014c2.757-0.09,3.374,0.901,3.252,3.428
			c-0.193,3.987-0.051,7.99-0.051,11.986c0,6.689,0,6.688,6.863,6.648c0.333-0.002,0.675-0.049,0.998,0.007
			c2.977,0.519,3.538-0.922,3.476-3.622C221.052,116.889,221.164,109.393,221.164,101.9z M281.028,127.991
			c-6.682-17.195-13.25-34.001-19.704-50.85c-0.663-1.732-1.585-2.087-3.268-2.203c-11.523-0.795-11.519-0.835-15.597,9.646
			c-1.083,2.783-2.186,5.559-3.26,8.346c-4.457,11.559-8.906,23.121-13.504,35.061c2.187,0,3.873-0.21,5.488,0.039
			c5.273,0.811,8.982-0.513,9.777-6.449c0.363-2.708,2.374-2.645,4.479-2.614c5.319,0.078,10.646,0.163,15.959-0.033
			c2.561-0.094,4.157,0.566,4.549,3.213c0.76,5.121,3.788,6.718,8.678,5.898C276.551,127.722,278.576,127.991,281.028,127.991z
			 M434.992,127.993c-6.673-17.256-13.064-33.82-19.51-50.362c-0.385-0.987-0.458-2.517-2.001-2.542
			c-4.155-0.066-8.453-0.668-12.421,0.195c-2.855,0.621-2.726,4.607-3.722,7.117c-5.93,14.944-11.656,29.97-17.452,44.972
			c1.883,1.021,3.567,0.388,5.155,0.63c5.196,0.793,9.074-0.333,9.916-6.375c0.311-2.233,1.891-2.72,4.007-2.675
			c5.655,0.121,11.317,0.151,16.969-0.013c2.264-0.066,3.565,0.794,3.855,2.863c0.812,5.796,4.425,7.002,9.524,6.227
			C430.929,127.786,432.616,127.993,434.992,127.993z M557.998,127.993c-5.723-14.73-11.246-28.947-16.771-43.164
			c-3.91-10.06-3.911-9.936-14.506-9.931c-2.839,0.001-4.007,0.955-4.963,3.532c-3.697,9.968-7.676,19.832-11.516,29.748
			c-2.494,6.441-4.93,12.904-7.566,19.815c2.309,0,4.004-0.238,5.607,0.044c5.185,0.913,8.61-0.632,9.567-6.188
			c0.422-2.448,2.052-2.966,4.363-2.902c5.32,0.148,10.658,0.244,15.968-0.031c2.925-0.152,4.405,0.938,4.834,3.615
			c0.758,4.726,3.532,6.19,8.05,5.515C553.144,127.736,555.308,127.993,557.998,127.993z M144.005,128.991
			c0.832,0,1.666,0.028,2.497-0.004c10.865-0.425,18.046-6.183,19.079-15.288c0.974-8.591-4.033-14.495-14.924-17.492
			c-3.839-1.056-7.758-1.838-11.56-3.005c-2.048-0.629-4.245-1.661-4.014-4.393c0.23-2.718,2.237-3.98,4.662-4.5
			c4.766-1.022,9.657-0.361,13.395,2.352c4.589,3.33,6.493,1.589,9.14-2.213c1.977-2.839,1.562-4.075-1.122-5.687
			c-8.145-4.89-16.783-6.047-25.874-3.577c-3.414,0.927-6.331,2.886-8.626,5.663c-6.423,7.774-3.528,18.775,6.42,22.792
			c5.508,2.224,11.426,3.428,17.142,5.147c2.027,0.61,3.645,1.78,3.758,4.118c0.12,2.494-1.404,4.087-3.486,4.971
			c-1.489,0.632-3.181,0.954-4.806,1.066c-5.921,0.407-11.173-1.544-15.61-5.329c-1.995-1.702-2.968-1.43-4.104,0.656
			c-0.632,1.16-1.355,2.346-2.296,3.248c-2.694,2.582-1.254,4.104,1.093,5.764C130.556,127.371,137.068,128.858,144.005,128.991z
			 M43.213,75.209c-0.067,0.604-0.146,0.791-0.094,0.927c5.444,14.078,10.893,28.155,16.352,42.227
			c4.07,10.492,4.073,10.451,15.588,9.67c1.67-0.113,2.611-0.438,3.28-2.186c6.455-16.856,13.027-33.667,19.712-50.865
			c-2.788,0-5.135,0.244-7.411-0.053c-4.054-0.529-6.071,0.888-7.423,4.946c-3.889,11.674-8.304,23.173-12.871,35.725
			c-3.871-10.638-7.384-20.282-10.89-29.929C55.353,74.385,55.356,74.384,43.213,75.209z M285.773,101.038
			c0,7.983,0.089,15.967-0.054,23.947c-0.043,2.411,0.684,3.091,3.071,3.058c9.311-0.128,18.629-0.204,27.937,0.012
			c4.57,0.106,2.955-3.044,2.975-5.094c0.02-2.072,1.532-5.269-3.02-5.045c-5.309,0.262-10.646-0.086-15.96,0.121
			c-2.809,0.109-3.676-0.729-3.632-3.59c0.163-10.641,0.065-21.286,0.065-31.93c0-7.769,0-7.605-7.966-7.619
			c-2.963-0.005-3.539,0.986-3.477,3.689C285.886,86.068,285.772,93.554,285.773,101.038z M114.665,101.996
			c0-6.311,0-12.622,0-18.933c0-9.028,0.007-8.955-8.998-8.137c-1.916,0.174-2.546,0.721-2.539,2.636
			c0.057,15.943,0.056,31.887,0.001,47.831c-0.007,1.892,0.544,2.754,2.525,2.621c1.653-0.112,3.348-0.216,4.975,0.019
			c3.361,0.485,4.209-0.895,4.109-4.116C114.509,116.616,114.665,109.303,114.665,101.996z"/>
		<path fill="#06BDD4" d="M451.661,92.857c0,10.301-0.283,20.613,0.114,30.898c0.212,5.495-3.219,4.17-6.123,4.22
			c-2.867,0.049-5.801,0.955-5.678-4.158c0.362-14.981,0.212-29.977,0.06-44.965c-0.031-3.079,0.855-3.914,3.924-3.95
			c12.064-0.141,12.053-0.252,16.415,10.887c2.699,6.893,5.43,13.773,8.724,22.123c4.053-10.322,7.728-19.131,10.933-28.108
			c1.317-3.689,3.015-5.074,7.103-4.945c10.883,0.342,10.89,0.107,10.89,10.884c0,12.658-0.14,25.318,0.088,37.972
			c0.065,3.598-1.046,4.458-4.479,4.361c-7.133-0.201-7.139-0.007-7.139-7.142c0-7.328,0.034-14.657-0.027-21.984
			c-0.013-1.574,0.503-3.264-1.045-5.428c-1.557,3.669-2.995,6.894-4.302,10.171c-2.711,6.794-5.354,13.615-8.022,20.425
			c-0.766,1.954-1.047,4.053-4.152,3.975c-2.878-0.072-3.104-2.091-3.798-3.832c-4.171-10.467-8.276-20.961-12.404-31.445
			C452.382,92.831,452.022,92.844,451.661,92.857z"/>
		<path fill="#06BDD4" d="M363.508,105.935c0-9.052,0.328-17.881-0.12-26.671c-0.279-5.478,3.093-4.268,6.047-4.267
			c2.81,0.001,5.787-1.038,5.658,4.107c-0.372,14.817-0.233,29.651-0.054,44.476c0.041,3.373-0.684,4.467-4.305,4.565
			c-4.76,0.128-7.837-1.12-10.652-5.292c-6.4-9.486-13.499-18.5-20.337-27.737c-1.749,1.021-1.022,2.504-1.032,3.666
			c-0.073,8.496-0.125,16.993,0.009,25.487c0.043,2.697-0.584,4.104-3.576,3.757c-1.644-0.191-3.338-0.154-4.991-0.008
			c-2.477,0.218-3.085-0.922-3.075-3.215c0.071-15.493,0.091-30.986-0.015-46.479c-0.018-2.646,0.91-3.181,3.422-3.446
			c5.825-0.614,9.873,1.002,13.227,6.232c5.021,7.83,10.929,15.093,16.507,22.562C360.865,104.534,361.259,105.798,363.508,105.935z
			"/>
		<path fill="#040404" d="M221.164,101.9c0,7.493-0.113,14.988,0.06,22.477c0.062,2.699-0.498,4.141-3.476,3.622
			c-0.323-0.056-0.665-0.009-0.998-0.007c-6.862,0.04-6.862,0.04-6.863-6.648c0-3.996-0.142-7.999,0.051-11.986
			c0.122-2.527-0.495-3.518-3.252-3.428c-6.321,0.206-12.655,0.164-18.979,0.014c-2.364-0.056-3.2,0.558-3.109,3.039
			c0.19,5.155-0.104,10.328,0.119,15.48c0.126,2.899-0.866,3.975-3.662,3.536c-0.325-0.051-0.665-0.009-0.998-0.007
			c-6.909,0.04-6.909,0.04-6.91-6.686c0-13.987,0.116-27.975-0.083-41.959c-0.049-3.423,0.72-4.948,4.326-4.4
			c1.465,0.223,3.001,0.145,4.488,0.012c2.214-0.198,2.869,0.745,2.814,2.878c-0.124,4.826,0.099,9.662-0.093,14.483
			c-0.105,2.649,0.381,3.856,3.434,3.734c6.151-0.246,12.325-0.244,18.477-0.001c3.07,0.121,3.527-1.144,3.426-3.76
			c-0.179-4.655,0.073-9.327-0.1-13.983c-0.092-2.497,0.504-3.385,3.241-3.41c8.086-0.074,8.084-0.225,8.084,8.019
			C221.164,89.246,221.164,95.573,221.164,101.9z"/>
		<path fill="#040404" d="M281.028,127.991c-2.452,0-4.477-0.27-6.403,0.053c-4.89,0.819-7.918-0.777-8.678-5.898
			c-0.393-2.647-1.988-3.307-4.549-3.213c-5.313,0.196-10.639,0.111-15.959,0.033c-2.105-0.031-4.116-0.094-4.479,2.614
			c-0.795,5.936-4.503,7.26-9.777,6.449c-1.615-0.248-3.301-0.039-5.488-0.039c4.598-11.94,9.047-23.502,13.504-35.061
			c1.074-2.787,2.177-5.562,3.26-8.346c4.077-10.481,4.073-10.441,15.597-9.646c1.682,0.116,2.604,0.471,3.268,2.203
			C267.778,93.991,274.346,110.796,281.028,127.991z M245.03,108.978c4.87,0,9.319-0.067,13.763,0.031
			c1.981,0.044,2.761-0.429,1.974-2.508c-2.416-6.388-4.761-12.802-7.468-20.105C250.374,94.385,247.777,101.477,245.03,108.978z"/>
		<path fill="#06BDD4" d="M434.992,127.993c-2.376,0-4.063-0.207-5.681,0.038c-5.099,0.774-8.712-0.431-9.524-6.227
			c-0.29-2.069-1.591-2.929-3.855-2.863c-5.653,0.164-11.315,0.133-16.969,0.013c-2.116-0.045-3.696,0.443-4.007,2.675
			c-0.842,6.042-4.72,7.168-9.916,6.375c-1.588-0.242-3.272,0.391-5.155-0.63c5.796-15.002,11.522-30.027,17.452-44.972
			c0.996-2.51,0.867-6.496,3.722-7.117c3.968-0.864,8.266-0.261,12.421-0.195c1.543,0.024,1.616,1.554,2.001,2.542
			C421.928,94.174,428.319,110.738,434.992,127.993z M415.518,108.792c-2.79-7.629-5.32-14.547-8.215-22.462
			c-2.932,8.006-5.523,15.079-8.226,22.462C404.609,108.792,409.692,108.792,415.518,108.792z"/>
		<path fill="#06BDD4" d="M557.998,127.993c-2.691,0-4.855-0.258-6.933,0.053c-4.518,0.675-7.292-0.789-8.05-5.515
			c-0.429-2.677-1.909-3.766-4.834-3.615c-5.31,0.275-10.648,0.179-15.968,0.031c-2.311-0.064-3.941,0.454-4.363,2.902
			c-0.957,5.556-4.382,7.101-9.567,6.188c-1.603-0.282-3.298-0.044-5.607-0.044c2.636-6.91,5.071-13.374,7.566-19.815
			c3.84-9.916,7.819-19.78,11.516-29.748c0.956-2.577,2.124-3.53,4.963-3.532c10.595-0.005,10.596-0.129,14.506,9.931
			C546.752,99.046,552.275,113.264,557.998,127.993z M530.32,86.403c-1.627,4.318-2.864,7.536-4.055,10.771
			c-4.599,12.498-4.597,12.411,8.835,11.871c2.993-0.12,3.259-0.976,2.276-3.497C535.039,99.55,532.908,93.471,530.32,86.403z"/>
		<path fill="#040404" d="M144.005,128.991c-6.938-0.132-13.45-1.62-19.237-5.711c-2.348-1.66-3.787-3.182-1.093-5.764
			c0.942-0.903,1.665-2.088,2.296-3.248c1.136-2.086,2.109-2.358,4.104-0.656c4.437,3.785,9.689,5.736,15.61,5.329
			c1.625-0.112,3.317-0.434,4.806-1.066c2.082-0.884,3.606-2.478,3.486-4.971c-0.113-2.338-1.73-3.508-3.758-4.118
			c-5.716-1.719-11.634-2.923-17.142-5.147c-9.948-4.016-12.843-15.018-6.42-22.792c2.295-2.777,5.212-4.736,8.626-5.663
			c9.091-2.469,17.729-1.313,25.874,3.577c2.684,1.612,3.099,2.847,1.122,5.687c-2.647,3.802-4.551,5.543-9.14,2.213
			c-3.738-2.712-8.628-3.374-13.395-2.352c-2.425,0.52-4.432,1.782-4.662,4.5c-0.231,2.731,1.966,3.764,4.014,4.393
			c3.803,1.167,7.721,1.949,11.56,3.005c10.891,2.997,15.899,8.901,14.924,17.492c-1.033,9.105-8.214,14.863-19.079,15.288
			C145.671,129.019,144.837,128.991,144.005,128.991z"/>
		<path fill="#040404" d="M43.213,75.209c12.142-0.825,12.14-0.825,16.243,10.462c3.507,9.646,7.019,19.291,10.89,29.929
			c4.566-12.552,8.981-24.051,12.871-35.725c1.352-4.058,3.369-5.475,7.423-4.946c2.276,0.297,4.623,0.053,7.411,0.053
			c-6.684,17.198-13.256,34.009-19.712,50.865c-0.669,1.747-1.61,2.072-3.28,2.186c-11.515,0.781-11.518,0.822-15.588-9.67
			c-5.459-14.073-10.908-28.149-16.352-42.227C43.067,76.001,43.147,75.813,43.213,75.209z"/>
		<path fill="#040404" d="M285.773,101.038c0-7.484,0.113-14.97-0.06-22.45c-0.063-2.703,0.513-3.694,3.477-3.689
			c7.966,0.014,7.966-0.149,7.966,7.619c0,10.644,0.098,21.289-0.065,31.93c-0.044,2.86,0.823,3.699,3.632,3.59
			c5.314-0.207,10.651,0.141,15.96-0.121c4.552-0.224,3.041,2.972,3.02,5.045c-0.02,2.05,1.595,5.2-2.975,5.094
			c-9.308-0.216-18.626-0.14-27.937-0.012c-2.387,0.033-3.115-0.648-3.071-3.058C285.862,117.005,285.773,109.021,285.773,101.038z"
			/>
		<path fill="#040404" d="M114.665,101.996c0,7.308-0.156,14.62,0.072,21.92c0.1,3.221-0.748,4.601-4.109,4.116
			c-1.627-0.235-3.322-0.13-4.975-0.019c-1.98,0.134-2.531-0.729-2.525-2.621c0.055-15.943,0.056-31.887-0.001-47.831
			c-0.007-1.915,0.623-2.462,2.539-2.636c9.005-0.818,8.998-0.891,8.998,8.137C114.665,89.374,114.665,95.685,114.665,101.996z"/>
		<path fill="#FDFEFE" d="M245.03,108.978c2.747-7.501,5.344-14.593,8.27-22.583c2.706,7.304,5.052,13.718,7.468,20.105
			c0.786,2.08,0.007,2.552-1.974,2.508C254.349,108.911,249.9,108.978,245.03,108.978z"/>
		<path fill="#FDFEFE" d="M415.518,108.792c-5.826,0-10.909,0-16.441,0c2.704-7.382,5.294-14.456,8.226-22.462
			C410.198,94.246,412.727,101.163,415.518,108.792z"/>
		<path fill="#FDFEFE" d="M530.32,86.403c2.589,7.068,4.72,13.146,7.057,19.144c0.983,2.521,0.717,3.377-2.276,3.497
			c-13.432,0.54-13.434,0.627-8.835-11.871C527.455,93.939,528.692,90.721,530.32,86.403z"/>
	</g>
</g>
</svg>
